<?xml version="1.0" encoding="UTF-8" standalone="no"?>
<!DOCTYPE svg PUBLIC "-//W3C//DTD SVG 1.1//EN" "http://www.w3.org/Graphics/SVG/1.1/DTD/svg11.dtd">
<svg width="100%" height="100%" viewBox="0 0 800 800" version="1.1" xmlns="http://www.w3.org/2000/svg" xmlns:xlink="http://www.w3.org/1999/xlink" xml:space="preserve" xmlns:serif="http://www.serif.com/" style="fill-rule:evenodd;clip-rule:evenodd;stroke-linejoin:round;stroke-miterlimit:2;">
    <g id="Layer-2" serif:id="Layer 2">
        <path d="M739.664,739.667L52.06,739.667L52.06,52.063L739.664,52.063L739.664,739.667ZM736.02,56.388L55.897,56.388L55.897,737.783L736.02,737.783L736.02,56.388ZM58.907,732.819L732.816,732.819L732.816,58.91L58.907,58.91L58.907,732.819ZM579.79,660.921L660.917,660.921L660.917,394.927C621.935,475.944 598.79,549.986 579.79,660.921ZM363.985,660.921L545.092,660.921C569.86,514.359 602.526,427.782 660.918,320.082L660.918,130.809L614.29,130.809C486.462,334.83 400.704,516.509 363.985,660.921ZM573.982,130.809L430.056,130.809C361.876,225.261 218.964,437.228 135.623,660.921L328.664,660.921C364.181,514.467 446.58,336.498 573.982,130.809ZM130.805,411.336L130.805,580.798C210.458,394.074 322.504,223.399 388,130.809L321.174,130.809C279.636,198.474 210.774,305.792 130.805,411.336ZM108.541,308.146L108.541,304.176L94.156,312.648L94.156,308.587L90.761,308.587L90.761,312.648L76.37,304.176L76.37,308.146L90.761,316.614L90.761,320.583L76.37,312.113L76.37,316.085L90.761,324.553L90.761,328.519L76.37,320.053L76.37,324.195L90.761,332.663L90.761,336.632L76.37,328.162L76.37,332.134L90.761,340.602L90.761,344.568L76.37,336.102L76.37,340.07L89.495,347.792L89.495,449.01L78.276,442.368L92.188,487.554L106.095,442.368L95.141,448.855L95.141,347.955L108.541,340.07L108.541,336.102L94.156,344.568L94.156,340.602L108.541,332.134L108.541,328.162L94.156,336.632L94.156,332.663L108.541,324.195L108.541,320.053L94.156,328.519L94.156,324.553L108.541,316.085L108.541,312.113L94.156,320.583L94.156,316.614L108.541,308.146ZM280.993,130.809L130.805,130.809L130.805,354.074C191.881,270.672 244.696,189.224 280.993,130.809ZM407.297,71.597C402.084,71.542 395.479,75.333 392.647,78.296C386.985,84.222 382.586,89.388 382.467,100.489C382.372,109.467 388.287,116.094 397.844,116.196C403.829,116.26 408.287,114.666 412.568,111.525C418.113,107.53 420.976,101.574 420.988,100.513C421.003,99.065 419.969,96.447 416.301,96.408C413.308,96.376 412.71,98.204 412.006,100.803C410.821,103.301 408.386,105.302 406.346,106.536C404.402,107.77 402.365,108.617 400.145,108.594C394.353,108.532 391.301,105.024 391.365,99.039C391.435,92.475 394.967,87.106 398.285,83.762C401.117,80.703 404.128,78.997 407.411,79.032C410.789,79.068 411.452,80.33 411.922,81.494C412.392,82.657 412.86,84.014 415.081,84.038C418.942,84.079 420.605,82.069 420.634,79.269C420.678,75.119 414.826,71.677 407.297,71.597Z" style="fill:rgb(235,235,235);"/>
    </g>
</svg>
